<svg width="203" height="203" viewBox="0 0 203 203" fill="none" xmlns="http://www.w3.org/2000/svg">
<path d="M101.5 0C45.4294 0 0 45.4294 0 101.5C0 138.376 19.727 170.545 49.1129 188.307V114.597C49.1129 110.995 52.0597 108.048 55.6613 108.048C59.2629 108.048 62.2097 110.995 62.2097 114.597V195.101C74.2833 200.176 87.5847 203 101.5 203C115.415 203 128.717 200.176 140.79 195.101V114.597C140.79 110.995 143.737 108.048 147.339 108.048C150.94 108.048 153.887 110.995 153.887 114.597V188.307C183.273 170.545 203 138.335 203 101.5C203 45.4294 157.571 0 101.5 0ZM74.6925 88.6079C68.6353 83.2054 55.7841 83.2054 49.7268 88.6079L45.8387 92.0867C44.2835 93.4373 42.0325 93.7238 40.2317 92.7415C38.4308 91.7593 37.4077 89.7129 37.7351 87.6665C39.3722 77.3528 51.7323 70.4361 62.2506 70.4361C72.769 70.4361 85.129 77.3528 86.7661 87.6665C87.0935 89.7129 86.0704 91.7593 84.2696 92.7415C81.8958 94.0103 79.6857 93.028 78.6625 92.0867L74.6925 88.6079ZM101.5 166.984C90.6542 166.984 81.8548 155.238 81.8548 140.79C81.8548 126.343 90.6542 114.597 101.5 114.597C112.346 114.597 121.145 126.343 121.145 140.79C121.145 155.238 112.346 166.984 101.5 166.984ZM162.809 92.7006C160.435 93.9694 158.225 92.9871 157.202 92.0458L153.314 88.5669C147.257 83.1645 134.406 83.1645 128.348 88.5669L124.419 92.0867C122.864 93.4373 120.613 93.7238 118.812 92.7415C117.011 91.7593 115.988 89.7129 116.316 87.6665C117.953 77.3528 130.313 70.4361 140.831 70.4361C151.35 70.4361 163.71 77.3528 165.347 87.6665C165.592 89.672 164.61 91.7183 162.809 92.7006Z" fill="black"/>
</svg>
