<svg width="205" height="203" viewBox="0 0 205 203" fill="none" xmlns="http://www.w3.org/2000/svg">
<path d="M174.726 29.9785C165.258 20.5101 153.994 12.9876 141.582 7.84297C129.169 2.69836 115.852 0.033102 102.396 0.000306391C88.9398 -0.0324892 75.6098 2.56783 63.1716 7.65186C50.7335 12.7359 39.4323 20.2035 29.9174 29.6255C20.4025 39.0476 12.8614 50.2385 7.72725 62.5553C2.59312 74.8721 -0.0328093 88.0721 0.000309409 101.397C0.0334282 114.722 2.72495 127.909 7.92024 140.2C13.1155 152.492 20.7122 163.646 30.2738 173.022C39.7418 182.49 51.0057 190.012 63.4184 195.157C75.8311 200.302 89.1481 202.967 102.604 203C116.06 203.032 129.39 200.432 141.828 195.348C154.267 190.264 165.568 182.797 175.083 173.374C184.597 163.952 192.139 152.761 197.273 140.445C202.407 128.128 205.033 114.928 205 101.603C204.967 88.2783 202.275 75.0913 197.08 62.7997C191.884 50.5081 184.288 39.3541 174.726 29.9785ZM69.6679 79.8254C71.8324 79.8254 73.9483 80.461 75.748 81.6519C77.5478 82.8427 78.9505 84.5352 79.7788 86.5155C80.6072 88.4957 80.8239 90.6747 80.4016 92.777C79.9793 94.8792 78.937 96.8102 77.4065 98.3258C75.8759 99.8415 73.9259 100.874 71.8029 101.292C69.68 101.71 67.4795 101.495 65.4797 100.675C63.48 99.8548 61.7708 98.4658 60.5682 96.6836C59.3657 94.9014 58.7238 92.8061 58.7238 90.6627C58.7202 89.2385 59.0008 87.8277 59.5495 86.5113C60.0982 85.1948 60.9042 83.9987 61.9212 82.9916C62.9382 81.9846 64.1461 81.1865 65.4755 80.6431C66.8049 80.0997 68.2296 79.8219 69.6679 79.8254ZM58.8743 147.482C64.3463 129.284 81.7656 115.95 102.477 115.95C123.189 115.95 140.608 129.284 146.121 147.482C146.275 148.023 146.3 148.593 146.192 149.145C146.085 149.698 145.848 150.218 145.502 150.664C145.156 151.11 144.709 151.47 144.197 151.715C143.686 151.959 143.123 152.082 142.555 152.074H62.4402C61.8721 152.082 61.3098 151.959 60.7982 151.715C60.2866 151.47 59.8398 151.11 59.4935 150.664C59.1471 150.218 58.9108 149.698 58.8033 149.145C58.6958 148.593 58.7201 148.023 58.8743 147.482ZM135.332 101.5C133.168 101.5 131.052 100.864 129.252 99.6736C127.452 98.4828 126.05 96.7902 125.221 94.81C124.393 92.8297 124.176 90.6507 124.598 88.5485C125.021 86.4462 126.063 84.5152 127.594 82.9996C129.124 81.484 131.074 80.4518 133.197 80.0337C135.32 79.6155 137.52 79.8301 139.52 80.6504C141.52 81.4706 143.229 82.8597 144.432 84.6419C145.634 86.424 146.276 88.5193 146.276 90.6627C146.28 92.0869 145.999 93.4977 145.45 94.8142C144.902 96.1306 144.096 97.3268 143.079 98.3338C142.062 99.3408 140.854 100.139 139.525 100.682C138.195 101.226 136.77 101.504 135.332 101.5Z" fill="black"/>
</svg>
