<svg width="243" height="164" viewBox="0 0 243 164" fill="none" xmlns="http://www.w3.org/2000/svg">
<path d="M242.673 85.2069C242.673 110.595 234.01 133.135 216.332 153.054C209.924 160.481 204.791 164 201.305 164C200.083 164 198.693 163.642 197.782 162.728C196.841 161.78 196.304 160.501 196.286 159.163C196.286 157.251 198.534 154.357 203.09 150.152C221.435 132.503 230.691 110.595 230.691 84.5746C230.691 55.6518 221.162 32.2516 202.179 14.1072C198.42 10.6642 196.4 7.76201 196.4 5.46159C196.4 4.27329 197.038 2.87933 198.063 1.96526C199.025 1.06517 200.273 0.533874 201.586 0.464653C205.816 0.464653 212.224 5.61393 220.258 15.9734C235.407 35.2908 243 58.5769 243 85.4811L242.673 85.2069ZM0 78.7931C0 53.4047 8.65633 30.8652 26.3031 10.9079C32.7422 3.5268 37.8829 0 41.4061 0C42.5907 0 43.9803 0.312307 44.8914 1.27208C45.795 2.22424 46.3873 3.16879 46.3873 4.44087C46.3873 6.35281 44.0866 9.28546 39.5458 13.7644C21.5573 31.4974 12.0961 53.3209 12.0961 79.3873C12.0961 108.31 21.7471 131.794 40.7 149.855C44.527 153.336 46.4329 156.276 46.4329 158.5C46.4193 159.175 46.2689 159.839 45.9908 160.454C45.7127 161.068 45.3128 161.619 44.8155 162.073C43.8733 163.037 42.5993 163.604 41.2543 163.657C36.8729 163.657 30.8135 158.5 22.7495 148.263C7.44141 129.258 0.00759328 106.093 0.00759328 78.8007L0 78.7931ZM179.194 148.537H67.9902C66.2043 148.535 64.4915 147.826 63.2244 146.563C61.9573 145.301 61.2386 143.587 61.2246 141.796C61.2246 137.903 64.11 135.009 67.9902 135.009H179.194C182.717 135.009 185.959 137.903 185.959 141.796C185.876 145.688 183.036 148.537 179.194 148.537ZM118.448 57.9599C120.429 57.678 121.933 64.1832 122.092 65.5771C122.555 69.142 121.371 72.5927 119.754 75.731C113.702 87.5911 99.7453 97.1127 103.466 112.073C105.129 118.502 108.447 122.981 118.766 128.496C115.296 129.684 110.421 127.391 107.703 125.441C95.5614 117.154 87.8466 103.542 88.5983 88.6651C88.9277 83.9663 89.7342 79.3134 91.0054 74.7788C94.802 61.7685 102.555 50.4264 107.065 37.7665C109.366 31.6498 111.021 24.3067 109.199 17.9235C108.24 14.747 106.637 11.8036 104.491 9.27784C103.906 8.52373 100.421 4.55513 99.0315 5.03502C105.129 2.72698 110.581 4.87506 115.881 8.05146C119.959 10.5118 123.163 14.0006 125.57 17.9615C130.126 25.2665 131.941 33.6303 132.852 42.1236C133.163 45.658 132.73 54.1893 136.808 55.8575C141.083 57.678 144.401 50.533 145.313 47.6385C147.287 41.0952 144.713 34.8186 142.146 28.7552C142.746 29.9816 145.032 31.3375 146.064 32.282L149.701 35.7784C154.136 40.3411 156.862 45.9779 158.684 52.0489C160.347 57.5257 161.091 63.1625 161.41 68.6317C162.17 80.0576 159.595 91.7958 155.039 102.27C153.128 106.988 150.457 111.36 147.135 115.211C143.938 118.982 139.58 121.435 136.102 124.931C144.249 116.712 148.646 103.306 147.454 93.1136C146.929 87.228 144.594 81.6514 140.772 77.1554C140.772 77.1554 141.25 80.8117 141.683 83.0664C142.435 88.1167 139.071 93.4259 135.16 92.8241C132.267 92.5118 133.771 86.2809 134.09 84.3004C135.16 78.3894 133.778 72.5927 131.599 67.1158C129.503 61.9132 125.547 57.8304 119.503 58.7444L118.448 57.9599Z" fill="black"/>
<path d="M242.673 85.2069C242.673 110.595 234.01 133.135 216.332 153.054C209.924 160.481 204.791 164 201.305 164C200.083 164 198.693 163.642 197.782 162.728C196.841 161.78 196.304 160.501 196.286 159.163C196.286 157.251 198.534 154.357 203.09 150.152C221.435 132.503 230.691 110.595 230.691 84.5746C230.691 55.6518 221.162 32.2516 202.179 14.1072C198.42 10.6642 196.4 7.76201 196.4 5.46159C196.4 4.27329 197.038 2.87933 198.063 1.96526C199.025 1.06517 200.273 0.533874 201.586 0.464653C205.816 0.464653 212.224 5.61393 220.258 15.9734C235.407 35.2908 243 58.5769 243 85.4811L242.673 85.2069ZM0 78.7931C0 53.4047 8.65633 30.8652 26.3031 10.9079C32.7422 3.5268 37.8829 0 41.4061 0C42.5907 0 43.9803 0.312307 44.8914 1.27208C45.795 2.22424 46.3873 3.16879 46.3873 4.44087C46.3873 6.35281 44.0866 9.28546 39.5458 13.7644C21.5573 31.4974 12.0961 53.3209 12.0961 79.3873C12.0961 108.31 21.7471 131.794 40.7 149.855C44.527 153.336 46.4329 156.276 46.4329 158.5C46.4193 159.175 46.2689 159.839 45.9908 160.454C45.7127 161.068 45.3128 161.619 44.8155 162.073C43.8733 163.037 42.5993 163.604 41.2543 163.657C36.8729 163.657 30.8135 158.5 22.7495 148.263C7.44141 129.258 0.00759328 106.093 0.00759328 78.8007L0 78.7931ZM179.194 148.537H67.9902C66.2043 148.535 64.4915 147.826 63.2244 146.563C61.9573 145.301 61.2386 143.587 61.2246 141.796C61.2246 137.903 64.11 135.009 67.9902 135.009H179.194C182.717 135.009 185.959 137.903 185.959 141.796C185.876 145.688 183.036 148.537 179.194 148.537ZM118.448 57.9599C120.429 57.678 121.933 64.1832 122.092 65.5771C122.555 69.142 121.371 72.5927 119.754 75.731C113.702 87.5911 99.7453 97.1127 103.466 112.073C105.129 118.502 108.447 122.981 118.766 128.496C115.296 129.684 110.421 127.391 107.703 125.441C95.5614 117.154 87.8466 103.542 88.5983 88.6651C88.9277 83.9663 89.7342 79.3134 91.0054 74.7788C94.802 61.7685 102.555 50.4264 107.065 37.7665C109.366 31.6498 111.021 24.3067 109.199 17.9235C108.24 14.747 106.637 11.8036 104.491 9.27784C103.906 8.52373 100.421 4.55513 99.0315 5.03502C105.129 2.72698 110.581 4.87506 115.881 8.05146C119.959 10.5118 123.163 14.0006 125.57 17.9615C130.126 25.2665 131.941 33.6303 132.852 42.1236C133.163 45.658 132.73 54.1893 136.808 55.8575C141.083 57.678 144.401 50.533 145.313 47.6385C147.287 41.0952 144.713 34.8186 142.146 28.7552C142.746 29.9816 145.032 31.3375 146.064 32.282L149.701 35.7784C154.136 40.3411 156.862 45.9779 158.684 52.0489C160.347 57.5257 161.091 63.1625 161.41 68.6317C162.17 80.0576 159.595 91.7958 155.039 102.27C153.128 106.988 150.457 111.36 147.135 115.211C143.938 118.982 139.58 121.435 136.102 124.931C144.249 116.712 148.646 103.306 147.454 93.1136C146.929 87.228 144.594 81.6514 140.772 77.1554C140.772 77.1554 141.25 80.8117 141.683 83.0664C142.435 88.1167 139.071 93.4259 135.16 92.8241C132.267 92.5118 133.771 86.2809 134.09 84.3004C135.16 78.3894 133.778 72.5927 131.599 67.1158C129.503 61.9132 125.547 57.8304 119.503 58.7444L118.448 57.9599Z" fill="black"/>
<path d="M242.673 85.2069C242.673 110.595 234.01 133.135 216.332 153.054C209.924 160.481 204.791 164 201.305 164C200.083 164 198.693 163.642 197.782 162.728C196.841 161.78 196.304 160.501 196.286 159.163C196.286 157.251 198.534 154.357 203.09 150.152C221.435 132.503 230.691 110.595 230.691 84.5746C230.691 55.6518 221.162 32.2516 202.179 14.1072C198.42 10.6642 196.4 7.76201 196.4 5.46159C196.4 4.27329 197.038 2.87933 198.063 1.96526C199.025 1.06517 200.273 0.533874 201.586 0.464653C205.816 0.464653 212.224 5.61393 220.258 15.9734C235.407 35.2908 243 58.5769 243 85.4811L242.673 85.2069ZM0 78.7931C0 53.4047 8.65633 30.8652 26.3031 10.9079C32.7422 3.5268 37.8829 0 41.4061 0C42.5907 0 43.9803 0.312307 44.8914 1.27208C45.795 2.22424 46.3873 3.16879 46.3873 4.44087C46.3873 6.35281 44.0866 9.28546 39.5458 13.7644C21.5573 31.4974 12.0961 53.3209 12.0961 79.3873C12.0961 108.31 21.7471 131.794 40.7 149.855C44.527 153.336 46.4329 156.276 46.4329 158.5C46.4193 159.175 46.2689 159.839 45.9908 160.454C45.7127 161.068 45.3128 161.619 44.8155 162.073C43.8733 163.037 42.5993 163.604 41.2543 163.657C36.8729 163.657 30.8135 158.5 22.7495 148.263C7.44141 129.258 0.00759328 106.093 0.00759328 78.8007L0 78.7931ZM179.194 148.537H67.9902C66.2043 148.535 64.4915 147.826 63.2244 146.563C61.9573 145.301 61.2386 143.587 61.2246 141.796C61.2246 137.903 64.11 135.009 67.9902 135.009H179.194C182.717 135.009 185.959 137.903 185.959 141.796C185.876 145.688 183.036 148.537 179.194 148.537ZM118.448 57.9599C120.429 57.678 121.933 64.1832 122.092 65.5771C122.555 69.142 121.371 72.5927 119.754 75.731C113.702 87.5911 99.7453 97.1127 103.466 112.073C105.129 118.502 108.447 122.981 118.766 128.496C115.296 129.684 110.421 127.391 107.703 125.441C95.5614 117.154 87.8466 103.542 88.5983 88.6651C88.9277 83.9663 89.7342 79.3134 91.0054 74.7788C94.802 61.7685 102.555 50.4264 107.065 37.7665C109.366 31.6498 111.021 24.3067 109.199 17.9235C108.24 14.747 106.637 11.8036 104.491 9.27784C103.906 8.52373 100.421 4.55513 99.0315 5.03502C105.129 2.72698 110.581 4.87506 115.881 8.05146C119.959 10.5118 123.163 14.0006 125.57 17.9615C130.126 25.2665 131.941 33.6303 132.852 42.1236C133.163 45.658 132.73 54.1893 136.808 55.8575C141.083 57.678 144.401 50.533 145.313 47.6385C147.287 41.0952 144.713 34.8186 142.146 28.7552C142.746 29.9816 145.032 31.3375 146.064 32.282L149.701 35.7784C154.136 40.3411 156.862 45.9779 158.684 52.0489C160.347 57.5257 161.091 63.1625 161.41 68.6317C162.17 80.0576 159.595 91.7958 155.039 102.27C153.128 106.988 150.457 111.36 147.135 115.211C143.938 118.982 139.58 121.435 136.102 124.931C144.249 116.712 148.646 103.306 147.454 93.1136C146.929 87.228 144.594 81.6514 140.772 77.1554C140.772 77.1554 141.25 80.8117 141.683 83.0664C142.435 88.1167 139.071 93.4259 135.16 92.8241C132.267 92.5118 133.771 86.2809 134.09 84.3004C135.16 78.3894 133.778 72.5927 131.599 67.1158C129.503 61.9132 125.547 57.8304 119.503 58.7444L118.448 57.9599Z" fill="black"/>
</svg>
