<svg width="53" height="53" viewBox="0 0 53 53" fill="none" xmlns="http://www.w3.org/2000/svg">
<path fill-rule="evenodd" clip-rule="evenodd" d="M26.3888 4.39814C14.2434 4.39814 4.39814 14.2434 4.39814 26.3888C4.39814 38.5343 14.2434 48.3795 26.3888 48.3795C38.5343 48.3795 48.3795 38.5343 48.3795 26.3888C48.3795 14.2434 38.5343 4.39814 26.3888 4.39814ZM0 26.3888C0 11.8145 11.8145 0 26.3888 0C40.9632 0 52.7777 11.8145 52.7777 26.3888C52.7777 40.9632 40.9632 52.7777 26.3888 52.7777C11.8145 52.7777 0 40.9632 0 26.3888Z" fill="black"/>
<path fill-rule="evenodd" clip-rule="evenodd" d="M21.0921 49.9981C20.8799 49.7232 20.8799 47.2767 21.0921 42.6598C18.8139 42.7389 17.3757 42.5806 16.7742 42.1859C15.8737 41.5932 14.971 39.7669 14.1716 38.4793C13.3712 37.1929 11.5954 36.9884 10.8785 36.7003C10.1616 36.4133 9.98129 35.2401 12.8544 36.1263C15.7275 37.0137 15.8671 39.4304 16.7742 39.9945C17.6813 40.5597 19.8485 40.3134 20.8304 39.8603C21.8123 39.4073 21.7397 37.7229 21.9156 37.0554C22.1366 36.432 21.356 36.2935 21.3395 36.2891C20.3796 36.2891 15.3426 35.1928 13.9583 30.3153C12.5751 25.4367 14.3574 22.248 15.3085 20.8769C15.9419 19.9643 15.8858 18.0159 15.1403 15.0351C17.8485 14.6887 19.9398 15.5408 21.411 17.5926C21.4132 17.6036 23.3417 16.4458 26.3885 16.4458C29.4365 16.4458 30.5173 17.3892 31.3518 17.5926C32.1875 17.796 32.8538 14.0015 38.0073 15.0351C36.9309 17.1495 36.0304 19.7916 36.7176 20.878C37.4059 21.9632 40.1041 25.4158 38.4471 30.3153C37.341 33.5809 35.1683 35.5722 31.928 36.2891C31.5575 36.4078 31.3716 36.5991 31.3716 36.863C31.3716 37.2588 31.873 37.3017 32.5965 39.1566C33.0803 40.3925 33.1144 43.9242 32.7021 49.7507C31.6564 50.0167 30.8428 50.196 30.2611 50.2872C29.2308 50.4489 28.1115 50.5401 27.012 50.5742C25.9124 50.6094 25.5309 50.6061 24.0103 50.4643C23.0281 50.3751 22.0531 50.2194 21.0921 49.9981Z" fill="black"/>
</svg>
