<svg width="53" height="53" viewBox="0 0 53 53" fill="none" xmlns="http://www.w3.org/2000/svg">
<circle cx="26.3888" cy="26.3888" r="24" stroke="black" stroke-width="4.77765"/>
<path d="M19.8758 20.2476V37.6983H14.322V20.2476H19.8758ZM20.2292 14.8592C20.2404 15.7162 19.9571 16.4323 19.3793 17.0075C18.8015 17.5828 18.0414 17.8704 17.0989 17.8704H17.0652C16.1452 17.8704 15.4047 17.5828 14.8437 17.0075C14.2828 16.4323 14.0023 15.7162 14.0023 14.8592C14.0023 13.9905 14.2912 13.2715 14.869 12.7021C15.4468 12.1327 16.2013 11.848 17.1326 11.848C18.0638 11.848 18.8099 12.1327 19.3709 12.7021C19.9319 13.2715 20.218 13.9905 20.2292 14.8592ZM39.8525 27.6963V37.6983H34.3156V28.3655C34.3156 27.1328 34.0884 26.1672 33.634 25.4687C33.1796 24.7702 32.4699 24.421 31.5051 24.421C30.7982 24.421 30.2064 24.6235 29.7295 25.0285C29.2527 25.4335 28.8965 25.9354 28.6608 26.5341C28.5374 26.8863 28.4757 27.3617 28.4757 27.9604V37.6983H22.9388C22.9612 33.0143 22.9724 29.2166 22.9724 26.3052C22.9724 23.3938 22.9668 21.6564 22.9556 21.0929L22.9388 20.2476H28.4757V22.7833H28.4421C28.6665 22.4077 28.8965 22.079 29.1321 21.7972C29.3677 21.5155 29.6846 21.2103 30.0829 20.8816C30.4812 20.5529 30.9693 20.2975 31.5471 20.1156C32.1249 19.9336 32.7673 19.8426 33.4741 19.8426C35.3927 19.8426 36.9354 20.5088 38.1023 21.8413C39.2691 23.1737 39.8525 25.1254 39.8525 27.6963Z" fill="black"/>
</svg>
