<svg width="447" height="354" viewBox="0 0 447 354" fill="none" xmlns="http://www.w3.org/2000/svg">
<path fill-rule="evenodd" clip-rule="evenodd" d="M72.7541 62.1936C82.3295 62.1936 85.812 50.7299 91.252 44.4389C95.1443 39.9379 101.787 41.28 103.753 34.9786C108.698 19.1333 95.4641 7.98096 78.2 7.98096C60.9358 7.98096 49.2952 17.7619 46.7818 32.4652C44.2683 47.1685 55.49 62.1936 72.7541 62.1936Z" fill="#191847"/>
<path fill-rule="evenodd" clip-rule="evenodd" d="M84.4288 60.1304C89.8542 63.4005 95.1849 64.9806 97.6872 64.3355C103.962 62.7182 104.539 39.7637 99.6838 30.7143C94.8288 21.6649 69.87 17.7206 68.6119 35.6503C68.1753 41.8731 70.7883 47.4266 74.6488 51.9582L67.7266 84.2225H87.8342L84.4288 60.1304Z" fill="#3F1D38"/>
<path fill-rule="evenodd" clip-rule="evenodd" d="M69.0814 23.0616C53.6796 38.1424 69.1403 54.1713 73.3765 54.1713C73.6499 51.9954 74.484 49.8788 75.7062 47.8643C75.0571 47.0236 74.6724 45.978 74.6724 44.8449C74.6724 42.0686 76.9818 39.818 79.8306 39.818C80.7203 39.818 81.5574 40.0375 82.288 40.424C88.4628 35.158 96.2072 31.4868 100.053 30.765C106.741 29.5095 84.4832 7.9809 69.0814 23.0616Z" fill="#191847"/>
<path fill-rule="evenodd" clip-rule="evenodd" d="M60.1865 153.761L91.7143 256.833L106.987 344.489H118.962L102.824 153.761H60.1865Z" fill="#291C34"/>
<path fill-rule="evenodd" clip-rule="evenodd" d="M48.9079 153.761C51.0493 210.353 48.5291 239.545 48.0498 244.686C47.5706 249.828 41.0076 283.167 25.4707 346.215L38.2309 341.833C62.7856 284.008 71.153 253.955 73.9692 246.362C76.7854 238.769 84.2652 207.902 96.4086 153.761H48.9079Z" fill="#372347"/>
<path fill-rule="evenodd" clip-rule="evenodd" d="M28.2126 340.974C27.1363 340.513 25.8614 340.988 25.4697 342.092C24.8776 343.76 24.1602 346.055 24.1602 347.386C24.1602 349.652 24.9152 354 24.9152 354C27.5442 354 72.1697 354 72.1697 354C72.1697 354 74.0117 347.911 70.0431 347.425C66.0746 346.939 63.4497 346.548 63.4497 346.548L41.6386 336.825C41.1241 336.595 40.5217 336.836 40.3069 337.357L38.9587 340.627C38.9587 340.627 35.2849 342.341 32.988 342.341C31.6872 342.341 29.6955 341.609 28.2126 340.974Z" fill="#E4E4E4"/>
<path fill-rule="evenodd" clip-rule="evenodd" d="M106.968 340.974C105.891 340.513 104.616 340.988 104.225 342.092C103.632 343.76 102.915 346.055 102.915 347.386C102.915 349.652 103.67 354 103.67 354C106.299 354 150.925 354 150.925 354C150.925 354 152.767 347.911 148.798 347.425C144.829 346.939 142.205 346.548 142.205 346.548L120.394 336.825C119.879 336.595 119.277 336.836 119.062 337.357L117.714 340.627C117.714 340.627 114.04 342.341 111.743 342.341C110.442 342.341 108.45 341.609 106.968 340.974Z" fill="#E4E4E4"/>
<path fill-rule="evenodd" clip-rule="evenodd" d="M55.9971 153.761L69.4022 206.275H110.347L104.242 153.761H55.9971Z" fill="#69A1AC"/>
<path fill-rule="evenodd" clip-rule="evenodd" d="M48.4568 153.761C41.8407 173.593 45.9434 206.275 45.9434 206.275H87.7256L99.2148 153.761H48.4568Z" fill="#89C5CC"/>
<path fill-rule="evenodd" clip-rule="evenodd" d="M157.686 163.612L133.952 140.459L126.069 154.099L150.749 168.649C156.937 178.397 160.572 182.609 161.652 181.285C162.564 180.169 162.146 178.945 161.761 177.818C161.462 176.94 161.182 176.12 161.566 175.456C162.443 173.938 167.398 174.807 172.065 175.833C176.732 176.859 175.652 174.566 174.66 173.37C170.249 169.81 164.591 166.558 157.686 163.612ZM17.7912 197.251C20.2464 192.27 28.6075 143.724 28.6075 143.724L46.1157 143.793C46.1157 143.793 29.8999 196.141 28.6075 199.344C26.9285 203.504 29.7804 209.55 31.7142 213.649C32.0134 214.283 32.2906 214.871 32.5257 215.398C29.8424 216.598 28.5534 215.147 27.1945 213.617C25.6597 211.889 24.0356 210.06 20.2125 211.839C18.7354 212.526 17.3377 213.338 15.9722 214.132C11.2553 216.874 6.92211 219.393 1.0274 215.755C0.0928701 215.179 -0.931221 213.008 1.54311 211.311C7.70757 207.084 16.5909 199.686 17.7912 197.251Z" fill="#3F1D38"/>
<path fill-rule="evenodd" clip-rule="evenodd" d="M78.3625 70.2577L85.6072 69.0151C98.0802 100.174 119.857 128.485 150.937 153.95L127.451 182.483C96.3747 146.225 77.219 108.816 78.3625 70.2577Z" fill="#191847"/>
<path fill-rule="evenodd" clip-rule="evenodd" d="M46.7812 161.302H111.293C111.293 161.302 88.8743 106.791 88.8743 68.6899L69.4143 65.7905C54.1205 90.3875 49.8014 120.671 46.7812 161.302Z" fill="#DDE3E9"/>
<path fill-rule="evenodd" clip-rule="evenodd" d="M17.458 188.95C24.5132 109.354 68.9872 65.7905 68.9872 65.7905L69.0027 65.8042C69.0052 65.7997 69.0077 65.7951 69.0103 65.7906H70.2805C72.5605 65.8691 77.226 66.0735 77.226 66.0735L81.9282 79.5114C82.6743 104.087 90.6424 178.566 90.6424 178.566H48.4153C48.4872 181.981 48.6462 185.444 48.9018 188.95H17.458Z" fill="#2F3676"/>
<path fill-rule="evenodd" clip-rule="evenodd" d="M48.4224 178.896C48.0853 164.025 49.4046 150.062 51.6055 137.426C52.7565 152.42 55.1623 170.462 60.1866 178.896H48.4224Z" fill="black" fill-opacity="0.1"/>
<path fill-rule="evenodd" clip-rule="evenodd" d="M57.7656 152.924L78.6182 143.229V152.924H57.7656Z" fill="white" fill-opacity="0.2"/>
<path fill-rule="evenodd" clip-rule="evenodd" d="M319.263 41.7661C325.005 45.2295 330.646 46.9028 333.294 46.2197C339.935 44.5068 340.545 20.1959 335.407 10.6118C330.269 1.02774 303.855 -3.14963 302.524 15.8395C302.062 22.4301 304.827 28.3117 308.913 33.111L301.587 67.2817H322.867L319.263 41.7661Z" fill="#372347"/>
<path fill-rule="evenodd" clip-rule="evenodd" d="M320.327 17.9366C322.167 15.1938 323.935 13.1018 326.233 11.8869C335.589 12.0348 336.684 10.3564 336.684 4.69953C335.173 3.6175 329.841 1.79551 323.871 1.283C320.825 0.410724 317.216 0.574779 313.741 2.0298C309.45 3.24813 305.817 5.87195 304.212 10.7842C298.406 20.8116 302.813 31.2498 308.751 34.8155C310.332 32.9412 311.712 31.1248 312.943 29.386C311.954 28.4193 311.34 27.0701 311.34 25.5774C311.34 22.6371 313.722 20.2535 316.66 20.2535C316.876 20.2535 317.089 20.2664 317.298 20.2914C317.431 23.9676 317.975 36.4051 319.404 40.7253C321.089 45.8187 330.921 47.0693 334.35 47.0693C337.312 47.0693 337.211 44.2625 337.139 42.2509C337.128 41.9613 337.119 41.688 337.119 41.4421C337.119 40.9282 336.451 40.9295 335.696 40.931C334.716 40.933 333.59 40.9352 333.59 39.8102C333.59 38.5837 335.284 37.643 336.799 36.8012C337.745 36.276 338.621 35.7894 338.973 35.2958C340.085 33.7388 340.459 31.6388 338.782 31.6388C337.866 31.6388 336.608 32.1676 335.095 32.8038C332.811 33.7643 329.945 34.9695 326.791 34.9695C321.581 34.9695 320.342 18.1471 320.327 17.9366Z" fill="#191847"/>
<path fill-rule="evenodd" clip-rule="evenodd" d="M294.493 140.93L326.639 253.821L350.093 337.028H367.2L342.276 140.93H294.493Z" fill="#191847"/>
<path fill-rule="evenodd" clip-rule="evenodd" d="M285.896 140.93C285.153 199.115 282.617 230.851 281.837 236.138C281.056 241.424 269.252 275.054 246.424 337.028H264.145C293.207 277.575 309.43 243.944 312.814 236.138C316.198 228.331 326.642 196.595 342.373 140.93H285.896Z" fill="#2F3676"/>
<path fill-rule="evenodd" clip-rule="evenodd" d="M244.84 353L245.727 334.366L264.347 334.366C277.59 343.683 298.927 349.451 298.927 349.451V353H265.233L253.707 351.225V353H244.84Z" fill="#191847"/>
<path fill-rule="evenodd" clip-rule="evenodd" d="M347.693 353L348.58 334.366L367.2 334.366C380.444 343.683 401.78 349.451 401.78 349.451V353H368.087L356.56 351.225V353H347.693Z" fill="#191847"/>
<path fill-rule="evenodd" clip-rule="evenodd" d="M225.657 173.125C228.963 168.263 248.092 116.56 248.092 116.56L263.796 118.842C263.796 118.842 238.51 173.745 236.684 176.914C234.312 181.03 236.41 187.791 237.833 192.375C238.053 193.084 238.257 193.741 238.426 194.328C235.437 195.192 234.3 193.48 233.101 191.675C231.747 189.636 230.314 187.479 226.046 188.781C224.396 189.284 222.812 189.93 221.264 190.561C215.917 192.742 211.005 194.744 205.363 190.061C204.468 189.318 203.715 186.89 206.558 185.476C213.641 181.951 224.04 175.502 225.657 173.125ZM396.057 149.094L369.292 126.386L361.977 141.379L389.106 154.929C396.359 164.771 400.507 168.952 401.55 167.473C402.429 166.226 401.898 164.964 401.409 163.802C401.028 162.896 400.672 162.051 401.028 161.32C401.842 159.652 407.137 160.204 412.14 160.943C417.143 161.683 415.834 159.34 414.698 158.149C409.779 154.715 403.565 151.696 396.057 149.094Z" fill="#372347"/>
<path fill-rule="evenodd" clip-rule="evenodd" d="M313.73 52.4919L323.461 49.2714C336.661 82.2712 356.348 114.2 389.24 141.169L381.106 155.213C352.199 138.172 324.834 124.934 313.73 99.3627C310.003 90.7804 313.426 62.7537 313.73 52.4919Z" fill="#C5CFD6"/>
<path fill-rule="evenodd" clip-rule="evenodd" d="M280.307 145.366C280.307 145.366 322.12 149.803 346.129 145.366C348.113 145 348.425 141.677 347.506 139.422C333.184 104.305 323.363 73.6631 323.363 49.2714C319.422 51.2601 309.567 49.8675 309.567 49.8675C291.91 75.0039 283.793 103.845 280.307 145.366Z" fill="#323337"/>
<path fill-rule="evenodd" clip-rule="evenodd" d="M304.507 47.7606C304.962 47.4533 305.203 47.3004 305.203 47.3004L305.177 47.7606H312.536C312.905 49.9369 313.447 58.003 314.237 69.7646C317.107 112.505 323.253 204.042 336.336 239.073H246.068C247.973 199.246 262.646 151.619 277.845 111.178C266.629 122.345 253.53 141.065 242.944 172.228L226.036 167.884C243.267 93.5805 293.75 55.26 303.546 48.4207C303.642 48.1995 303.737 47.9795 303.831 47.7606H304.507Z" fill="#DDE3E9"/>
<path fill-rule="evenodd" clip-rule="evenodd" d="M319.263 41.7661C325.005 45.2295 330.646 46.9028 333.294 46.2197C339.935 44.5068 340.545 20.1959 335.407 10.6118C330.269 1.02774 303.855 -3.14963 302.524 15.8395C302.062 22.4301 304.827 28.3117 308.913 33.111L301.587 67.2817H322.867L319.263 41.7661Z" fill="#372347"/>
<path fill-rule="evenodd" clip-rule="evenodd" d="M320.327 17.9366C322.167 15.1938 323.935 13.1018 326.233 11.8869C335.589 12.0348 336.684 10.3564 336.684 4.69953C335.173 3.6175 329.841 1.79551 323.871 1.283C320.825 0.410724 317.216 0.574779 313.741 2.0298C309.45 3.24813 305.817 5.87195 304.212 10.7842C298.406 20.8116 302.813 31.2498 308.751 34.8155C310.332 32.9412 311.712 31.1248 312.943 29.386C311.954 28.4193 311.34 27.0701 311.34 25.5774C311.34 22.6371 313.722 20.2535 316.66 20.2535C316.876 20.2535 317.089 20.2664 317.298 20.2914C317.431 23.9676 317.975 36.4051 319.404 40.7253C321.089 45.8187 330.921 47.0693 334.35 47.0693C337.312 47.0693 337.211 44.2625 337.139 42.2509C337.128 41.9613 337.119 41.688 337.119 41.4421C337.119 40.9282 336.451 40.9295 335.696 40.931C334.716 40.933 333.59 40.9352 333.59 39.8102C333.59 38.5837 335.284 37.643 336.799 36.8012C337.745 36.276 338.621 35.7894 338.973 35.2958C340.085 33.7388 340.459 31.6388 338.782 31.6388C337.866 31.6388 336.608 32.1676 335.095 32.8038C332.811 33.7643 329.945 34.9695 326.791 34.9695C321.581 34.9695 320.342 18.1471 320.327 17.9366Z" fill="#191847"/>
<path fill-rule="evenodd" clip-rule="evenodd" d="M294.493 140.93L326.639 253.821L350.093 337.028H367.2L342.276 140.93H294.493Z" fill="#191847"/>
<path fill-rule="evenodd" clip-rule="evenodd" d="M285.896 140.93C285.153 199.115 282.617 230.851 281.837 236.138C281.056 241.424 269.252 275.054 246.424 337.028H264.145C293.207 277.575 309.43 243.945 312.814 236.138C316.198 228.331 326.642 196.595 342.373 140.93H285.896Z" fill="#2F3676"/>
<path fill-rule="evenodd" clip-rule="evenodd" d="M244.84 353L245.727 334.366L264.347 334.366C277.59 343.683 298.927 349.451 298.927 349.451V353H265.233L253.707 351.225V353H244.84Z" fill="#191847"/>
<path fill-rule="evenodd" clip-rule="evenodd" d="M347.693 353L348.58 334.366L367.2 334.366C380.444 343.683 401.78 349.451 401.78 349.451V353H368.087L356.56 351.225V353H347.693Z" fill="#191847"/>
<g clip-path="url(#clip0_31_1592)">
<path fill-rule="evenodd" clip-rule="evenodd" d="M225.657 173.125C228.963 168.263 248.092 116.56 248.092 116.56L263.796 118.842C263.796 118.842 238.51 173.745 236.684 176.914C234.312 181.03 236.41 187.79 237.833 192.375C238.053 193.084 238.257 193.741 238.426 194.328C235.437 195.192 234.3 193.48 233.101 191.675C231.747 189.636 230.314 187.479 226.046 188.781C224.396 189.284 222.812 189.93 221.264 190.561C215.917 192.741 211.005 194.744 205.363 190.061C204.468 189.318 203.715 186.89 206.558 185.476C213.641 181.951 224.04 175.502 225.657 173.125ZM396.057 149.094L369.292 126.386L361.977 141.379L389.106 154.929C396.359 164.77 400.507 168.952 401.55 167.473C402.429 166.226 401.898 164.964 401.409 163.802C401.028 162.896 400.672 162.051 401.028 161.32C401.842 159.652 407.137 160.204 412.14 160.943C417.143 161.682 415.834 159.34 414.698 158.149C409.779 154.715 403.565 151.696 396.057 149.094Z" fill="#372347"/>
<path fill-rule="evenodd" clip-rule="evenodd" d="M313.73 52.4918L323.461 49.2713C336.661 82.2711 356.348 114.2 389.24 141.169L381.106 155.213C352.199 138.171 324.834 124.934 313.73 99.3626C310.003 90.7803 313.426 62.7536 313.73 52.4918Z" fill="#C5CFD6"/>
<path fill-rule="evenodd" clip-rule="evenodd" d="M280.307 145.366C280.307 145.366 322.12 149.803 346.129 145.366C348.113 145 348.425 141.677 347.506 139.422C333.184 104.305 323.363 73.6629 323.363 49.2713C319.422 51.26 309.567 49.8674 309.567 49.8674C291.91 75.0037 283.793 103.845 280.307 145.366Z" fill="#323337"/>
<path fill-rule="evenodd" clip-rule="evenodd" d="M304.507 47.7605C304.962 47.4532 305.203 47.3003 305.203 47.3003L305.177 47.7605H312.536C312.905 49.9367 313.447 58.0029 314.237 69.7645C317.107 112.504 323.253 204.042 336.336 239.073H246.068C247.973 199.246 262.646 151.619 277.845 111.178C266.629 122.345 253.53 141.065 242.944 172.228L226.036 167.884C243.267 93.5804 293.75 55.2599 303.546 48.4205C303.642 48.1993 303.737 47.9793 303.831 47.7605H304.507Z" fill="#DDE3E9"/>
</g>
<path fill-rule="evenodd" clip-rule="evenodd" d="M72.7541 62.1936C82.3295 62.1936 85.812 50.7299 91.252 44.4389C95.1443 39.9379 101.787 41.28 103.753 34.9786C108.698 19.1333 95.4641 7.98096 78.2 7.98096C60.9358 7.98096 49.2952 17.7619 46.7818 32.4652C44.2683 47.1685 55.49 62.1936 72.7541 62.1936Z" fill="#191847"/>
<path fill-rule="evenodd" clip-rule="evenodd" d="M84.4288 60.1304C89.8542 63.4005 95.1849 64.9806 97.6872 64.3355C103.962 62.7182 104.539 39.7637 99.6838 30.7143C94.8288 21.6649 69.87 17.7206 68.6119 35.6503C68.1753 41.8731 70.7883 47.4266 74.6488 51.9582L67.7266 84.2225H87.8342L84.4288 60.1304Z" fill="#3F1D38"/>
<path fill-rule="evenodd" clip-rule="evenodd" d="M69.0814 23.0616C53.6796 38.1424 69.1403 54.1713 73.3765 54.1713C73.6499 51.9954 74.484 49.8788 75.7062 47.8643C75.0571 47.0236 74.6724 45.978 74.6724 44.8449C74.6724 42.0686 76.9818 39.818 79.8306 39.818C80.7203 39.818 81.5574 40.0375 82.288 40.424C88.4628 35.158 96.2072 31.4868 100.053 30.765C106.741 29.5095 84.4832 7.9809 69.0814 23.0616Z" fill="#191847"/>
<path fill-rule="evenodd" clip-rule="evenodd" d="M60.1865 153.761L91.7143 256.833L106.987 344.489H118.962L102.824 153.761H60.1865Z" fill="#291C34"/>
<path fill-rule="evenodd" clip-rule="evenodd" d="M48.9079 153.761C51.0493 210.353 48.5291 239.545 48.0498 244.686C47.5706 249.828 41.0076 283.167 25.4707 346.215L38.2309 341.833C62.7856 284.008 71.153 253.955 73.9692 246.362C76.7854 238.769 84.2652 207.902 96.4086 153.761H48.9079Z" fill="#372347"/>
<path fill-rule="evenodd" clip-rule="evenodd" d="M28.2126 340.974C27.1363 340.513 25.8614 340.988 25.4697 342.092C24.8776 343.76 24.1602 346.055 24.1602 347.386C24.1602 349.652 24.9152 354 24.9152 354C27.5442 354 72.1697 354 72.1697 354C72.1697 354 74.0117 347.911 70.0431 347.425C66.0746 346.939 63.4497 346.548 63.4497 346.548L41.6386 336.825C41.1241 336.595 40.5217 336.836 40.3069 337.357L38.9587 340.627C38.9587 340.627 35.2849 342.341 32.988 342.341C31.6872 342.341 29.6955 341.609 28.2126 340.974Z" fill="#100F31"/>
<path fill-rule="evenodd" clip-rule="evenodd" d="M106.968 340.974C105.891 340.513 104.616 340.988 104.225 342.092C103.632 343.76 102.915 346.055 102.915 347.386C102.915 349.652 103.67 354 103.67 354C106.299 354 150.925 354 150.925 354C150.925 354 152.767 347.911 148.798 347.425C144.829 346.939 142.205 346.548 142.205 346.548L120.394 336.825C119.879 336.595 119.277 336.836 119.062 337.357L117.714 340.627C117.714 340.627 114.04 342.341 111.743 342.341C110.442 342.341 108.45 341.609 106.968 340.974Z" fill="#100F31"/>
<path fill-rule="evenodd" clip-rule="evenodd" d="M55.9971 153.761L69.4022 206.275H110.347L104.242 153.761H55.9971Z" fill="#69A1AC"/>
<path fill-rule="evenodd" clip-rule="evenodd" d="M48.4568 153.761C41.8407 173.593 45.9434 206.275 45.9434 206.275H87.7256L99.2148 153.761H48.4568Z" fill="#89C5CC"/>
<path fill-rule="evenodd" clip-rule="evenodd" d="M157.686 163.612L133.952 140.459L126.069 154.099L150.749 168.649C156.937 178.397 160.572 182.609 161.652 181.285C162.564 180.169 162.146 178.945 161.761 177.818C161.462 176.94 161.182 176.12 161.566 175.456C162.443 173.938 167.398 174.807 172.065 175.833C176.732 176.859 175.652 174.566 174.66 173.37C170.249 169.81 164.591 166.558 157.686 163.612ZM17.7912 197.251C20.2464 192.27 28.6075 143.724 28.6075 143.724L46.1157 143.793C46.1157 143.793 29.8999 196.141 28.6075 199.344C26.9285 203.504 29.7804 209.55 31.7142 213.649C32.0134 214.283 32.2906 214.871 32.5257 215.398C29.8424 216.598 28.5534 215.147 27.1945 213.617C25.6597 211.889 24.0356 210.06 20.2125 211.839C18.7354 212.526 17.3377 213.338 15.9722 214.132C11.2553 216.874 6.92211 219.393 1.0274 215.755C0.0928701 215.179 -0.931221 213.008 1.54311 211.311C7.70757 207.084 16.5909 199.686 17.7912 197.251Z" fill="#3F1D38"/>
<path fill-rule="evenodd" clip-rule="evenodd" d="M78.3625 70.2577L85.6072 69.0151C98.0802 100.174 119.857 128.485 150.937 153.95L127.451 182.483C96.3747 146.225 77.219 108.816 78.3625 70.2577Z" fill="#191847"/>
<path fill-rule="evenodd" clip-rule="evenodd" d="M46.7812 161.302H111.293C111.293 161.302 88.8743 106.791 88.8743 68.6899L69.4143 65.7905C54.1205 90.3875 49.8014 120.671 46.7812 161.302Z" fill="#DDE3E9"/>
<path fill-rule="evenodd" clip-rule="evenodd" d="M17.458 188.95C24.5132 109.354 68.9872 65.7905 68.9872 65.7905L69.0027 65.8042C69.0052 65.7997 69.0077 65.7951 69.0103 65.7906H70.2805C72.5605 65.8691 77.226 66.0735 77.226 66.0735L81.9282 79.5114C82.6743 104.087 90.6424 178.566 90.6424 178.566H48.4153C48.4872 181.981 48.6462 185.444 48.9018 188.95H17.458Z" fill="#2F3676"/>
<path fill-rule="evenodd" clip-rule="evenodd" d="M48.4224 178.896C48.0853 164.025 49.4046 150.062 51.6055 137.426C52.7565 152.42 55.1623 170.462 60.1866 178.896H48.4224Z" fill="black" fill-opacity="0.1"/>
<path fill-rule="evenodd" clip-rule="evenodd" d="M57.7656 152.924L78.6182 143.229V152.924H57.7656Z" fill="white" fill-opacity="0.2"/>
<defs>
<clipPath id="clip0_31_1592">
<rect width="226.987" height="165.93" fill="white" transform="translate(200.507 47.7605)"/>
</clipPath>
</defs>
</svg>
