<svg width="183" height="152" viewBox="0 0 183 152" fill="none" xmlns="http://www.w3.org/2000/svg">
<path d="M179 11.9846V60.01H131.273" stroke="black" stroke-width="7" stroke-linecap="round" stroke-linejoin="round"/>
<path d="M4 140.052V92.0268H51.7273" stroke="black" stroke-width="7" stroke-linecap="round" stroke-linejoin="round"/>
<path d="M23.9659 52.0065C28.0002 40.5347 34.8567 30.2782 43.8958 22.194C52.9348 14.1099 63.8616 8.46155 75.6568 5.77608C87.452 3.0906 99.731 3.45551 111.348 6.83676C122.965 10.218 133.542 16.5054 142.091 25.1122L179 60.0107M4 92.0276L40.9091 126.926C49.4582 135.533 60.0348 141.82 71.6519 145.202C83.269 148.583 95.548 148.948 107.343 146.262C119.138 143.577 130.065 137.928 139.104 129.844C148.143 121.76 155 111.504 159.034 100.032" stroke="black" stroke-width="7" stroke-linecap="round" stroke-linejoin="round"/>
</svg>
