<svg width="203" height="203" viewBox="0 0 203 203" fill="none" xmlns="http://www.w3.org/2000/svg">
<path d="M101.5 203C45.4416 203 0 157.558 0 101.5C0 45.4416 45.4416 0 101.5 0C157.558 0 203 45.4416 203 101.5C203 157.558 157.558 203 101.5 203ZM50.75 111.65C50.75 125.11 56.0969 138.018 65.6143 147.536C75.1318 157.053 88.0403 162.4 101.5 162.4C114.96 162.4 127.868 157.053 137.386 147.536C146.903 138.018 152.25 125.11 152.25 111.65H131.95C131.95 119.726 128.742 127.471 123.031 133.181C117.321 138.892 109.576 142.1 101.5 142.1C93.4242 142.1 85.6791 138.892 79.9686 133.181C74.2581 127.471 71.05 119.726 71.05 111.65H50.75ZM60.9 91.35C64.9379 91.35 68.8105 89.7459 71.6657 86.8907C74.5209 84.0355 76.125 80.1629 76.125 76.125C76.125 72.0871 74.5209 68.2145 71.6657 65.3593C68.8105 62.5041 64.9379 60.9 60.9 60.9C56.8621 60.9 52.9895 62.5041 50.1343 65.3593C47.2791 68.2145 45.675 72.0871 45.675 76.125C45.675 80.1629 47.2791 84.0355 50.1343 86.8907C52.9895 89.7459 56.8621 91.35 60.9 91.35ZM142.1 91.35C146.138 91.35 150.01 89.7459 152.866 86.8907C155.721 84.0355 157.325 80.1629 157.325 76.125C157.325 72.0871 155.721 68.2145 152.866 65.3593C150.01 62.5041 146.138 60.9 142.1 60.9C138.062 60.9 134.19 62.5041 131.334 65.3593C128.479 68.2145 126.875 72.0871 126.875 76.125C126.875 80.1629 128.479 84.0355 131.334 86.8907C134.19 89.7459 138.062 91.35 142.1 91.35Z" fill="black"/>
</svg>
