<svg width="208" height="203" viewBox="0 0 208 203" fill="none" xmlns="http://www.w3.org/2000/svg">
<path d="M104 0C161.439 0 208 45.4416 208 101.5C208 157.558 161.439 203 104 203C46.5608 203 0 157.558 0 101.5C0 45.4416 46.5608 0 104 0ZM104 91.35C83.2 91.35 65.8632 94.7299 52 101.5C52 114.96 57.4786 127.868 67.2304 137.386C76.9823 146.903 90.2087 152.25 104 152.25C117.791 152.25 131.018 146.903 140.77 137.386C150.521 127.868 156 114.96 156 101.5C142.137 94.7299 124.8 91.35 104 91.35ZM67.6 50.75C55.6192 50.75 45.5312 58.667 42.5152 69.426L42.12 71.05H93.08C91.8812 65.3185 88.6903 60.1672 84.0471 56.468C79.4039 52.7687 73.5938 50.7488 67.6 50.75ZM140.4 50.75C128.419 50.75 118.331 58.667 115.315 69.426L114.92 71.05H165.88C164.681 65.3185 161.49 60.1672 156.847 56.468C152.204 52.7687 146.394 50.7488 140.4 50.75Z" fill="black"/>
</svg>
