<svg width="54" height="53" viewBox="0 0 54 53" fill="none" xmlns="http://www.w3.org/2000/svg">
<circle cx="27.0325" cy="26.3888" r="24" stroke="black" stroke-width="4.77765"/>
<path d="M38.3392 25.3027C38.3392 23.1312 37.5677 21.628 36.9075 20.4578L36.7052 20.1249C35.9033 18.8189 35.2027 17.6716 35.2027 16.3349C35.2027 14.7216 36.4118 13.2159 38.1166 13.2159C38.1672 13.2159 38.2153 13.221 38.2633 13.2236L38.3418 13.2313C35.1449 10.2586 30.9609 8.6114 26.6201 8.61674C23.7432 8.61524 20.9112 9.33842 18.3792 10.7211C15.8472 12.1038 13.6948 14.1025 12.116 16.5372C12.5207 16.55 12.9077 16.5603 13.234 16.5603C15.0477 16.5603 17.8579 16.3375 17.8579 16.3375C18.7939 16.2811 18.9052 17.6716 17.9692 17.7843C17.9692 17.7843 17.0308 17.897 15.9836 17.9508L22.3073 36.9876L26.1016 25.4487L23.395 17.9482C22.4616 17.8919 21.5763 17.7818 21.5763 17.7818C20.6404 17.7254 20.7517 16.276 21.6851 16.3324C21.6851 16.3324 24.5535 16.5551 26.2584 16.5551C28.0746 16.5551 30.8873 16.3324 30.8873 16.3324C31.8233 16.276 31.932 17.6691 30.9961 17.7818C30.9961 17.7818 30.0551 17.8919 29.0105 17.9482L35.2836 36.839L37.0138 30.9825L37.1504 30.5395C37.8333 28.3373 38.3367 26.7112 38.3367 25.3002L38.3392 25.3027ZM9.26021 26.1913C9.26003 29.4915 10.1776 32.7251 11.9079 35.522C13.6382 38.3189 16.1113 40.5662 19.0443 42.0067L10.7602 19.0365C9.76821 21.288 9.25706 23.7261 9.26021 26.1913Z" fill="black"/>
<path d="M23.2625 43.4471L28.3036 28.2191L33.4647 42.9304C33.499 43.0144 33.5381 43.0933 33.5846 43.1696C30.2576 44.3887 26.6456 44.4858 23.2625 43.4471ZM42.7419 18.3106C42.8154 18.868 42.857 19.4636 42.857 20.1075C42.857 21.879 42.5388 23.8719 41.5795 26.3636L36.4503 41.7876C40.2353 39.5004 43.0117 35.7659 44.1874 31.3803C45.3632 26.9946 44.8454 22.3048 42.7444 18.3106H42.7419Z" fill="black"/>
</svg>
