<svg width="185" height="186" viewBox="0 0 185 186" fill="none" xmlns="http://www.w3.org/2000/svg">
<path d="M145.996 88.9901C145.996 79.1901 142.471 72.4063 139.454 67.125L138.53 65.6226C134.867 59.7288 131.665 54.5514 131.665 48.5188C131.665 41.2382 137.189 34.4429 144.979 34.4429C145.21 34.4429 145.429 34.466 145.649 34.4776L146.007 34.5122C131.401 21.0966 112.286 13.6631 92.4538 13.6872C79.3101 13.6805 66.3712 16.9441 54.8032 23.1841C43.2351 29.4241 33.4014 38.4443 26.1882 49.4318C28.0373 49.4896 29.8054 49.5358 31.2962 49.5358C39.5823 49.5358 52.4217 48.5304 52.4217 48.5304C56.6976 48.2762 57.2061 54.5514 52.9302 55.0599C52.9302 55.0599 48.6427 55.5684 43.8583 55.8111L72.7498 141.723L90.0847 89.6488L77.7191 55.7995C73.4547 55.5453 69.4099 55.0483 69.4099 55.0483C65.134 54.7941 65.6425 48.253 69.9068 48.5073C69.9068 48.5073 83.012 49.5127 90.8012 49.5127C99.0988 49.5127 111.95 48.5073 111.95 48.5073C116.226 48.253 116.723 54.5398 112.447 55.0483C112.447 55.0483 108.148 55.5453 103.375 55.7995L132.035 141.053L139.94 114.623L140.564 112.623C143.684 102.685 145.984 95.3462 145.984 88.9785L145.996 88.9901ZM13.1408 93.0002C13.14 107.894 17.3321 122.487 25.2374 135.109C33.1427 147.731 44.4419 157.873 57.8418 164.374L19.9939 60.7111C15.4617 70.8716 13.1264 81.8747 13.1408 93.0002Z" fill="black"/>
<path d="M70.0449 169.077L93.8515 99.9339L118.224 166.731C118.386 167.112 118.571 167.471 118.791 167.817C103.079 173.353 86.0216 173.793 70.0449 169.077ZM162.035 54.944C162.382 57.4749 162.579 60.1792 162.579 63.103C162.579 71.1464 161.076 80.1952 156.546 91.5091L132.323 161.542C150.198 151.157 163.309 134.2 168.862 114.287C174.414 94.3743 171.969 73.08 162.047 54.944H162.035Z" fill="black"/>
<path fill-rule="evenodd" clip-rule="evenodd" d="M0 93C0 42.0238 41.4767 0.547173 92.4528 0.547173C143.417 0.547173 184.906 42.0238 184.906 93C184.906 143.976 143.417 185.453 92.4528 185.453C41.4767 185.453 0 143.976 0 93ZM4.24127 93C4.24127 141.642 43.8111 181.212 92.4528 181.212C141.083 181.212 180.653 141.642 180.653 93C180.653 44.3467 141.083 4.78845 92.4528 4.78845C43.7995 4.78845 4.24127 44.3467 4.24127 93Z" fill="black"/>
</svg>
